new Crispy Bold-Extended.ufo
<glyph name="exclam" format="2">
  <advance width="676"/>
  <unicode hex="0021"/>
  <outline>
    <contour>
      <point x="114" y="413" type="line" identifier="1m237t4hyw"/>
      <point x="497" y="413" type="line" identifier="S4rO5KuHiL"/>
      <point x="539" y="487" type="line"/>
      <point x="539" y="1600" type="line" identifier="zfocDyDTCM"/>
      <point x="156" y="1600" type="line" identifier="v7N4yg5XNk"/>
      <point x="114" y="1520" type="line"/>
    </contour>
    <component base="period" xOffset="48"/>
  </outline>
</glyph>
<glyph name="comma" format="2">
  <advance width="1016"/>
  <unicode hex="002C"/>
  <outline>
    <contour>
      <point x="628" y="-401" type="line"/>
      <point x="800" y="0" type="line"/>
      <point x="800" y="319" type="line"/>
      <point x="453" y="319" type="line"/>
      <point x="394" y="221" type="line"/>
      <point x="394" y="0" type="line"/>
      <point x="588" y="0" type="line"/>
      <point x="588" y="-401" type="line"/>
    </contour>
  </outline>
</glyph>
<glyph name="period" format="2">
  <advance width="757"/>
  <unicode hex="002E"/>
  <outline>
    <contour>
      <point x="489" y="0" type="line" identifier="1m237t4hyw"/>
      <point x="540" y="74" type="line" identifier="v7N4yg5XNk"/>
      <point x="540" y="336" type="line"/>
      <point x="166" y="336" type="line" identifier="zfocDyDTCM"/>
      <point x="115" y="262" type="line"/>
      <point x="115" y="0" type="line" identifier="S4rO5KuHiL"/>
    </contour>
  </outline>
</glyph>
<glyph name="one" format="2">
  <advance width="3230"/>
  <unicode hex="0031"/>
  <outline>
    <contour>
      <point x="219" y="0" type="line"/>
      <point x="3013" y="0" type="line" identifier="CURJAw79Zl"/>
      <point x="3013" y="319" type="line" identifier="0DUCJo8xIi"/>
      <point x="1832" y="319" type="line" identifier="5nmxQXofSG"/>
      <point x="1832" y="1600" type="line" identifier="4rjIeWbSbx"/>
      <point x="249" y="1600" type="line"/>
      <point x="249" y="1281" type="line"/>
      <point x="1427" y="1281" type="line"/>
      <point x="1427" y="319" type="line"/>
      <point x="219" y="319" type="line"/>
    </contour>
  </outline>
</glyph>
<glyph name="three" format="2">
  <advance width="3529"/>
  <unicode hex="0033"/>
  <outline>
    <contour>
      <point x="217" y="0" type="line" identifier="O9abUc1nmN"/>
      <point x="3312" y="0" type="line" identifier="kMJYMTfXCq"/>
      <point x="3312" y="933" type="line" identifier="su2XmdS8e8"/>
      <point x="3080" y="933" type="line" identifier="JQaOzDQqlF"/>
      <point x="3080" y="1600" type="line" identifier="xg8x2Ki40p"/>
      <point x="257" y="1600" type="line" identifier="pE1XSRiy68"/>
      <point x="257" y="1007" type="line" identifier="5lNstGRcSF"/>
      <point x="663" y="1007" type="line" identifier="AcE5xKDZfE"/>
      <point x="663" y="1298" type="line" identifier="7ogBYufWpl"/>
      <point x="2675" y="1298" type="line" identifier="RHLvSX2Jv6"/>
      <point x="2675" y="933" type="line" identifier="iic1IBkDqp"/>
      <point x="986" y="933" type="line" identifier="lRLJEhXMlO"/>
      <point x="986" y="655" type="line" identifier="8aKgEELrVU"/>
      <point x="2907" y="655" type="line" identifier="Dm8zjmbhNr"/>
      <point x="2907" y="302" type="line" identifier="xv9CFHiFgB"/>
      <point x="622" y="302" type="line" identifier="YajKQV3MHP"/>
      <point x="622" y="600" type="line" identifier="36SchVkwze"/>
      <point x="217" y="600" type="line" identifier="tVui9PiOjA"/>
    </contour>
  </outline>
</glyph>
<glyph name="four" format="2">
  <advance width="3515"/>
  <unicode hex="0034"/>
  <outline>
    <contour>
      <point x="2613" y="0" type="line"/>
      <point x="3018" y="0" type="line"/>
      <point x="3018" y="614" type="line"/>
      <point x="3298" y="614" type="line"/>
      <point x="3298" y="933" type="line"/>
      <point x="3018" y="933" type="line"/>
      <point x="3018" y="1600" type="line"/>
      <point x="2613" y="1600" type="line"/>
      <point x="2613" y="933" type="line"/>
      <point x="621" y="933" type="line"/>
      <point x="621" y="1055" type="line"/>
      <point x="622" y="1599" type="line"/>
      <point x="217" y="1599" type="line"/>
      <point x="217" y="1055" type="line"/>
      <point x="217" y="614" type="line"/>
      <point x="2613" y="614" type="line"/>
    </contour>
  </outline>
</glyph>
<glyph name="six" format="2">
  <advance width="3501"/>
  <unicode hex="0036"/>
  <outline>
    <contour>
      <point x="217" y="0" type="line" identifier="uiw6aBUf4P"/>
      <point x="3284" y="0" type="line" identifier="jtYkxiUX6G"/>
      <point x="3284" y="940" type="line" identifier="2G5L37c87I"/>
      <point x="622" y="940" type="line"/>
      <point x="622" y="1118" type="line"/>
      <point x="834" y="1298" type="line"/>
      <point x="2878" y="1298" type="line"/>
      <point x="2878" y="1065" type="line"/>
      <point x="3283" y="1065" type="line" identifier="Wuidbv6mUe"/>
      <point x="3283" y="1600" type="line" identifier="oGvEEuxnYv"/>
      <point x="589" y="1600" type="line" identifier="xR3pEHbMJx"/>
      <point x="217" y="1218" type="line" identifier="KnMArb0tv8"/>
    </contour>
    <contour>
      <point x="2879" y="639" type="line"/>
      <point x="2879" y="302" type="line"/>
      <point x="622" y="302" type="line"/>
      <point x="622" y="639" type="line"/>
    </contour>
  </outline>
</glyph>
<glyph name="B" format="2">
  <advance width="3618"/>
  <unicode hex="0042"/>
  <outline>
    <contour>
      <point x="309" y="0" type="line" identifier="hvY9r8RmLr"/>
      <point x="3032" y="0" type="line" identifier="9QFpw7nfq7"/>
      <point x="3401" y="468" type="line"/>
      <point x="3401" y="948" type="line" identifier="543PerILpr"/>
      <point x="3019" y="948" type="line" identifier="zhomauHW30"/>
      <point x="3118" y="1096" type="line"/>
      <point x="3118" y="1600" type="line" identifier="FaP204GrdB"/>
      <point x="309" y="1600" type="line" identifier="JEev70GAj6"/>
    </contour>
    <contour>
      <point x="714" y="306" type="line" identifier="jaMSiLrCua"/>
      <point x="714" y="652" type="line" identifier="XSrxNd2axx"/>
      <point x="2996" y="652" type="line" identifier="lsRGatjQja"/>
      <point x="2996" y="557" type="line"/>
      <point x="2768" y="306" type="line" identifier="xhlDJ3CjD5"/>
    </contour>
    <contour>
      <point x="714" y="946" type="line" identifier="By7dfMihfe"/>
      <point x="714" y="1294" type="line" identifier="1p5hKrurVy"/>
      <point x="2725" y="1294" type="line" identifier="Qby8aMtF2X"/>
      <point x="2725" y="1084" type="line"/>
      <point x="2627" y="946" type="line" identifier="xpxyvIzPoc"/>
    </contour>
  </outline>
</glyph>
<glyph name="D" format="2">
  <advance width="3613"/>
  <unicode hex="0044"/>
  <outline>
    <contour>
      <point x="309" y="0" type="line" identifier="IF8msvcgce"/>
      <point x="3022" y="0" type="line" identifier="ydeACnPZN4"/>
      <point x="3396" y="539" type="line" identifier="wIy2omw5Da"/>
      <point x="3396" y="1600" type="line" identifier="gh4oopoKIn"/>
      <point x="309" y="1600" type="line" identifier="hTYdJwlqIh"/>
    </contour>
    <contour>
      <point x="714" y="319" type="line" identifier="YShvMHvurg"/>
      <point x="714" y="1281" type="line" identifier="OGdfzPVlic"/>
      <point x="2992" y="1281" type="line" identifier="4w8cXO1HlF"/>
      <point x="2992" y="639" type="line" identifier="5OFemp6E2Y"/>
      <point x="2754" y="319" type="line" identifier="DiLdvAK6bW"/>
    </contour>
  </outline>
</glyph>
<glyph name="S" format="2">
  <advance width="3285"/>
  <unicode hex="0053"/>
  <outline>
    <contour>
      <point x="217" y="0" type="line" identifier="09VlJ0BjUX"/>
      <point x="2698" y="0" type="line" identifier="EagWihqFM8"/>
      <point x="3068" y="463" type="line"/>
      <point x="3069" y="950" type="line" identifier="KfNuQA7eZe"/>
      <point x="622" y="950" type="line" identifier="At364YZFEy"/>
      <point x="622" y="1033" type="line"/>
      <point x="845" y="1300" type="line"/>
      <point x="2662" y="1300" type="line" identifier="3ZUkG35meB"/>
      <point x="2662" y="1102" type="line" identifier="DTOJhFIl15"/>
      <point x="3067" y="1102" type="line" identifier="9KDcrfQ5Ui"/>
      <point x="3066" y="1600" type="line" identifier="SaF9ojRFrW"/>
      <point x="587" y="1600" type="line"/>
      <point x="219" y="1124" type="line"/>
      <point x="219" y="651" type="line" identifier="3sQ8t8BZ6b"/>
      <point x="2663" y="651" type="line" identifier="yiV6OCBLHg"/>
      <point x="2663" y="554" type="line"/>
      <point x="2434" y="303" type="line" identifier="9kdl9SYsn8"/>
      <point x="622" y="303" type="line" identifier="yZDWuX8LLe"/>
      <point x="622" y="503" type="line" identifier="jYb9001DTm"/>
      <point x="217" y="503" type="line" identifier="ho4DrS0rdW"/>
    </contour>
  </outline>
</glyph>
<glyph name="W" format="2">
  <advance width="4419"/>
  <unicode hex="0057"/>
  <outline>
    <contour>
      <point x="1872" y="1340" type="line" identifier="0Dn4Xpf57M"/>
      <point x="914" y="292" type="line"/>
      <point x="693" y="292" type="line"/>
      <point x="693" y="1600" type="line"/>
      <point x="309" y="1600" type="line"/>
      <point x="309" y="0" type="line"/>
      <point x="1166" y="0" type="line"/>
      <point x="2067" y="1013" type="line"/>
      <point x="2355" y="1014" type="line" identifier="9aKZPM0HPh"/>
      <point x="3258" y="0" type="line"/>
      <point x="4110" y="0" type="line"/>
      <point x="4110" y="1600" type="line"/>
      <point x="3725" y="1600" type="line"/>
      <point x="3725" y="292" type="line"/>
      <point x="3505" y="292" type="line"/>
      <point x="2546" y="1340" type="line" identifier="spdoeeCFft"/>
    </contour>
  </outline>
</glyph>
<glyph name="X" format="2">
  <advance width="3468"/>
  <unicode hex="0058"/>
  <outline>
    <contour>
      <point x="217" y="0" type="line"/>
      <point x="622" y="0" type="line"/>
      <point x="622" y="630" type="line"/>
      <point x="861" y="630" type="line"/>
      <point x="2551" y="630" type="line"/>
      <point x="2846" y="504" type="line"/>
      <point x="2846" y="0" type="line"/>
      <point x="3251" y="0" type="line"/>
      <point x="3251" y="598" type="line"/>
      <point x="2896" y="755" type="line"/>
      <point x="2896" y="807" type="line"/>
      <point x="3248" y="807" type="line"/>
      <point x="3248" y="1600" type="line"/>
      <point x="2815" y="1600" type="line"/>
      <point x="2815" y="950" type="line"/>
      <point x="2629" y="951" type="line"/>
      <point x="898" y="951" type="line"/>
      <point x="625" y="1068" type="line"/>
      <point x="625" y="1600" type="line"/>
      <point x="220" y="1600" type="line"/>
      <point x="220" y="981" type="line"/>
      <point x="543" y="829" type="line"/>
      <point x="543" y="775" type="line"/>
      <point x="217" y="775" type="line"/>
    </contour>
  </outline>
</glyph>
<glyph name="B.skinnymiddle" format="2">
  <advance width="3618"/>
  <outline>
    <contour>
      <point x="309" y="0" type="line" identifier="hvY9r8RmLr"/>
      <point x="3032" y="0" type="line" identifier="9QFpw7nfq7"/>
      <point x="3401" y="468" type="line"/>
      <point x="3401" y="929" type="line" identifier="543PerILpr"/>
      <point x="2954" y="929" type="line" identifier="zhomauHW30"/>
      <point x="3118" y="1096" type="line"/>
      <point x="3118" y="1600" type="line" identifier="FaP204GrdB"/>
      <point x="309" y="1600" type="line" identifier="JEev70GAj6"/>
    </contour>
    <contour>
      <point x="714" y="306" type="line" identifier="jaMSiLrCua"/>
      <point x="714" y="683" type="line" identifier="XSrxNd2axx"/>
      <point x="2996" y="683" type="line" identifier="lsRGatjQja"/>
      <point x="2996" y="557" type="line"/>
      <point x="2768" y="306" type="line" identifier="xhlDJ3CjD5"/>
    </contour>
    <contour>
      <point x="714" y="915" type="line" identifier="By7dfMihfe"/>
      <point x="714" y="1294" type="line" identifier="1p5hKrurVy"/>
      <point x="2725" y="1294" type="line" identifier="Qby8aMtF2X"/>
      <point x="2725" y="1084" type="line"/>
      <point x="2561" y="915" type="line" identifier="xpxyvIzPoc"/>
    </contour>
  </outline>
</glyph>
<glyph name="C.wide" format="2">
  <advance width="3326"/>
  <outline>
    <contour>
      <point x="233" y="0" type="line" identifier="7lPhzTnk2Z"/>
      <point x="3109" y="0" type="line" identifier="qJVLZGnkwh"/>
      <point x="3109" y="319" type="line" identifier="Y750RHTvDj"/>
      <point x="638" y="319" type="line" identifier="L2LsGnXiZ2"/>
      <point x="638" y="994" type="line" identifier="sUWsr03vF4"/>
      <point x="851" y="1281" type="line" identifier="dbOUe6OhxL"/>
      <point x="3108" y="1281" type="line" identifier="5BjRbcud80"/>
      <point x="3108" y="1600" type="line" identifier="9eJelv8BOw"/>
      <point x="588" y="1600" type="line" identifier="lfZev3ICaC"/>
      <point x="233" y="1087" type="line" identifier="V1EWIdPahq"/>
    </contour>
  </outline>
</glyph>
<glyph name="E.wide" format="2">
  <advance width="3360"/>
  <outline>
    <contour>
      <point x="309" y="0" type="line" identifier="fZynkQ4XHB"/>
      <point x="3052" y="0" type="line" identifier="FAQNpgUPxV"/>
      <point x="3052" y="302" type="line" identifier="5cgTYOhATF"/>
      <point x="714" y="302" type="line" identifier="bWs42DaCgU"/>
      <point x="714" y="657" type="line" identifier="VtD2aADJmn"/>
      <point x="2784" y="657" type="line" identifier="PpbsFdHAnS"/>
      <point x="2784" y="943" type="line" identifier="8WuC5p8Ax5"/>
      <point x="714" y="943" type="line" identifier="m39IWn9ntA"/>
      <point x="714" y="1300" type="line" identifier="gQ21I4SHQg"/>
      <point x="3044" y="1300" type="line" identifier="eqNb2VTwYs"/>
      <point x="3044" y="1600" type="line" identifier="qYRmo14Il5"/>
      <point x="309" y="1600" type="line" identifier="HmJIcnLWfC"/>
    </contour>
  </outline>
</glyph>
<glyph name="E.wideskinny" format="2">
  <advance width="3318"/>
  <outline>
    <contour>
      <point x="307" y="0" type="line" identifier="fZynkQ4XHB"/>
      <point x="3009" y="0" type="line" identifier="FAQNpgUPxV"/>
      <point x="3009" y="302" type="line" identifier="5cgTYOhATF"/>
      <point x="712" y="302" type="line" identifier="bWs42DaCgU"/>
      <point x="712" y="677" type="line" identifier="VtD2aADJmn"/>
      <point x="2741" y="677" type="line" identifier="PpbsFdHAnS"/>
      <point x="2741" y="924" type="line" identifier="8WuC5p8Ax5"/>
      <point x="712" y="924" type="line" identifier="m39IWn9ntA"/>
      <point x="712" y="1300" type="line" identifier="gQ21I4SHQg"/>
      <point x="3001" y="1300" type="line" identifier="eqNb2VTwYs"/>
      <point x="3001" y="1600" type="line" identifier="qYRmo14Il5"/>
      <point x="307" y="1600" type="line" identifier="HmJIcnLWfC"/>
    </contour>
  </outline>
</glyph>
<glyph name="G.wideskinny" format="2">
  <advance width="3406"/>
  <outline>
    <contour>
      <point x="217" y="0" type="line" identifier="7lPhzTnk2Z"/>
      <point x="3257" y="0" type="line" identifier="qJVLZGnkwh"/>
      <point x="3257" y="903" type="line" identifier="uek1NNj7De"/>
      <point x="2175" y="903" type="line" identifier="qcvimxjndX"/>
      <point x="2175" y="667" type="line" identifier="EARaY3Su65"/>
      <point x="2853" y="667" type="line" identifier="4m6dHLVhZq"/>
      <point x="2853" y="306" type="line" identifier="Y750RHTvDj"/>
      <point x="622" y="306" type="line" identifier="L2LsGnXiZ2"/>
      <point x="622" y="1008" type="line" identifier="sUWsr03vF4"/>
      <point x="832" y="1294" type="line" identifier="dbOUe6OhxL"/>
      <point x="3253" y="1294" type="line" identifier="5BjRbcud80"/>
      <point x="3253" y="1600" type="line" identifier="9eJelv8BOw"/>
      <point x="564" y="1600" type="line" identifier="lfZev3ICaC"/>
      <point x="217" y="1098" type="line" identifier="V1EWIdPahq"/>
    </contour>
  </outline>
</glyph>
<glyph name="L.wide" format="2">
  <advance width="3118"/>
  <outline>
    <contour>
      <point x="309" y="0" type="line" identifier="XkJNfQlnnt"/>
      <point x="2903" y="0" type="line" identifier="82EXZEgt46"/>
      <point x="2903" y="319" type="line" identifier="cqpSxwFiM3"/>
      <point x="714" y="319" type="line" identifier="MbxRZRd8vz"/>
      <point x="714" y="1600" type="line" identifier="lYiaKSKITt"/>
      <point x="309" y="1600" type="line" identifier="XFf4mMUzYo"/>
    </contour>
  </outline>
</glyph>
<glyph name="N.wide" format="2">
  <advance width="3359"/>
  <outline>
    <contour>
      <point x="274" y="0" type="line" identifier="CkwYPPvJLv"/>
      <point x="679" y="0" type="line" identifier="oHTJsN7drZ"/>
      <point x="679" y="1245" type="line" identifier="wfBbYd10Pm"/>
      <point x="893" y="1245" type="line" identifier="MEnBDHq6zU"/>
      <point x="2731" y="0" type="line" identifier="3Nbopwznvn"/>
      <point x="3429" y="0" type="line" identifier="uKfuudIUvA"/>
      <point x="3429" y="1600" type="line" identifier="XRdLFXiM4t"/>
      <point x="3024" y="1600" type="line" identifier="MUSJPjCIXg"/>
      <point x="3024" y="363" type="line" identifier="VILP20cFmq"/>
      <point x="2811" y="363" type="line" identifier="z5b04GDwRN"/>
      <point x="978" y="1600" type="line" identifier="LL64NQ6WBE"/>
      <point x="274" y="1600" type="line" identifier="dzUaaP1sjt"/>
    </contour>
  </outline>
</glyph>
<glyph name="P.wide" format="2">
  <advance width="3299"/>
  <outline>
    <contour>
      <point x="190" y="0" type="line" identifier="EG08jqU5fb"/>
      <point x="595" y="0" type="line" identifier="osRzIFK2Cu"/>
      <point x="595" y="505" type="line" identifier="hIFVovVRwe"/>
      <point x="3107" y="505" type="line" identifier="Tt6D8zYZmU"/>
      <point x="3107" y="1600" type="line" identifier="6xW04auDFu"/>
      <point x="190" y="1600" type="line" identifier="eETO5GBD5v"/>
    </contour>
    <contour>
      <point x="595" y="830" type="line" identifier="PIBVN1PGv1"/>
      <point x="595" y="1281" type="line" identifier="IZIZQr2gYJ"/>
      <point x="2702" y="1281" type="line" identifier="2c4LCF1E1R"/>
      <point x="2702" y="830" type="line" identifier="1WCnzth1GX"/>
    </contour>
  </outline>
</glyph>
<glyph name="R.wide" format="2">
  <advance width="3464"/>
  <outline>
    <contour>
      <point x="2725" y="0" type="line"/>
      <point x="3131" y="0" type="line"/>
      <point x="2753" y="655" type="line"/>
      <point x="2377" y="654" type="line"/>
    </contour>
    <contour>
      <point x="309" y="-1" type="line" identifier="EG08jqU5fb"/>
      <point x="714" y="-1" type="line" identifier="osRzIFK2Cu"/>
      <point x="714" y="635" type="line" identifier="hIFVovVRwe"/>
      <point x="3177" y="635" type="line" identifier="Tt6D8zYZmU"/>
      <point x="3177" y="1599" type="line" identifier="6xW04auDFu"/>
      <point x="309" y="1599" type="line" identifier="eETO5GBD5v"/>
    </contour>
    <contour>
      <point x="714" y="954" type="line" identifier="PIBVN1PGv1"/>
      <point x="714" y="1280" type="line" identifier="IZIZQr2gYJ"/>
      <point x="2772" y="1280" type="line" identifier="2c4LCF1E1R"/>
      <point x="2772" y="954" type="line" identifier="1WCnzth1GX"/>
    </contour>
  </outline>
</glyph>
<glyph name="S.wide" format="2">
  <advance width="3398"/>
  <outline>
    <contour>
      <point x="217" y="0" type="line" identifier="09VlJ0BjUX"/>
      <point x="2799" y="0" type="line" identifier="EagWihqFM8"/>
      <point x="3181" y="459" type="line"/>
      <point x="3181" y="949" type="line" identifier="KfNuQA7eZe"/>
      <point x="596" y="949" type="line" identifier="At364YZFEy"/>
      <point x="596" y="1044" type="line"/>
      <point x="821" y="1299" type="line"/>
      <point x="3177" y="1299" type="line" identifier="3ZUkG35meB"/>
      <point x="3177" y="1600" type="line" identifier="SaF9ojRFrW"/>
      <point x="603" y="1600" type="line"/>
      <point x="220" y="1124" type="line"/>
      <point x="220" y="650" type="line" identifier="3sQ8t8BZ6b"/>
      <point x="2803" y="650" type="line" identifier="yiV6OCBLHg"/>
      <point x="2803" y="543" type="line"/>
      <point x="2574" y="303" type="line" identifier="9kdl9SYsn8"/>
      <point x="217" y="303" type="line" identifier="yZDWuX8LLe"/>
    </contour>
  </outline>
</glyph>
<glyph name="S.wideskinny" format="2">
  <advance width="3332"/>
  <outline>
    <contour>
      <point x="217" y="0" type="line" identifier="09VlJ0BjUX"/>
      <point x="2761" y="0" type="line" identifier="EagWihqFM8"/>
      <point x="3115" y="459" type="line"/>
      <point x="3115" y="930" type="line" identifier="KfNuQA7eZe"/>
      <point x="568" y="930" type="line" identifier="At364YZFEy"/>
      <point x="568" y="1033" type="line"/>
      <point x="792" y="1299" type="line"/>
      <point x="3110" y="1299" type="line" identifier="3ZUkG35meB"/>
      <point x="3110" y="1600" type="line" identifier="SaF9ojRFrW"/>
      <point x="575" y="1600" type="line"/>
      <point x="219" y="1124" type="line"/>
      <point x="219" y="669" type="line" identifier="3sQ8t8BZ6b"/>
      <point x="2764" y="669" type="line" identifier="yiV6OCBLHg"/>
      <point x="2764" y="554" type="line"/>
      <point x="2536" y="303" type="line" identifier="9kdl9SYsn8"/>
      <point x="217" y="303" type="line" identifier="yZDWuX8LLe"/>
    </contour>
  </outline>
</glyph>
<glyph name="U.alt" format="2">
  <advance width="3343"/>
  <outline>
    <contour>
      <point x="2749" y="1600" type="line" smooth="yes"/>
      <point x="2749" y="319" type="line"/>
      <point x="585" y="319" type="line" smooth="yes"/>
      <point x="585" y="1600" type="line"/>
      <point x="180" y="1600" type="line" smooth="yes"/>
      <point x="180" y="0" type="line" smooth="yes"/>
      <point x="3154" y="0" type="line" smooth="yes"/>
      <point x="3154" y="1600" type="line" smooth="yes"/>
    </contour>
  </outline>
</glyph>
<glyph name="Y.wideskinny" format="2">
  <advance width="3623"/>
  <outline>
    <contour>
      <point x="320" y="0" type="line"/>
      <point x="3314" y="0" type="line" identifier="oOtn61SmRY"/>
      <point x="3314" y="1600" type="line" identifier="8OglXgblhr"/>
      <point x="2909" y="1600" type="line" identifier="db0bPhBdaU"/>
      <point x="2909" y="922" type="line" identifier="MTAeavIVWY"/>
      <point x="714" y="922" type="line" identifier="lggLiivmLt"/>
      <point x="714" y="1600" type="line" identifier="UPaHY3UudR"/>
      <point x="309" y="1600" type="line" identifier="ZnCDQVdtyD"/>
      <point x="309" y="666" type="line" identifier="uqAJBjDIOT"/>
      <point x="2909" y="666" type="line" identifier="7JgTtdb0jg"/>
      <point x="2909" y="306" type="line"/>
      <point x="320" y="306" type="line"/>
    </contour>
  </outline>
</glyph>
<glyph name="Z.wide" format="2">
  <advance width="3382"/>
  <outline>
    <contour>
      <point x="217" y="0" type="line"/>
      <point x="3162" y="0" type="line" identifier="pzdvPTirLJ"/>
      <point x="3162" y="302" type="line"/>
      <point x="648" y="302" type="line"/>
      <point x="648" y="479" type="line"/>
      <point x="3155" y="1035" type="line" identifier="yyb1NCCI5w"/>
      <point x="3155" y="1600" type="line" identifier="5FogYRSgkk"/>
      <point x="226" y="1600" type="line" identifier="svlFvrau4c"/>
      <point x="226" y="1298" type="line"/>
      <point x="2725" y="1298" type="line"/>
      <point x="2725" y="1170" type="line"/>
      <point x="217" y="625" type="line" identifier="teVKnpBcVb"/>
    </contour>
  </outline>
</glyph>
<glyph name="eight.skinnymiddle" format="2">
  <advance width="3578"/>
  <outline>
    <contour>
      <point x="2695" y="668" type="line"/>
      <point x="2958" y="508" type="line"/>
      <point x="2958" y="302" type="line"/>
      <point x="620" y="302" type="line"/>
      <point x="620" y="501" type="line"/>
      <point x="884" y="668" type="line"/>
    </contour>
    <contour>
      <point x="3087" y="792" type="line"/>
      <point x="3087" y="808" type="line"/>
      <point x="3359" y="994" type="line"/>
      <point x="3359" y="1600" type="line"/>
      <point x="219" y="1600" type="line"/>
      <point x="219" y="994" type="line"/>
      <point x="492" y="808" type="line"/>
      <point x="492" y="792" type="line"/>
      <point x="216" y="601" type="line"/>
      <point x="216" y="0" type="line"/>
      <point x="3363" y="0" type="line"/>
      <point x="3363" y="601" type="line"/>
    </contour>
    <contour>
      <point x="884" y="932" type="line"/>
      <point x="624" y="1091" type="line"/>
      <point x="623" y="1298" type="line"/>
      <point x="2955" y="1298" type="line"/>
      <point x="2954" y="1091" type="line"/>
      <point x="2694" y="932" type="line"/>
    </contour>
  </outline>
</glyph>
<glyph name="five.wideskinny" format="2">
  <advance width="3467"/>
  <outline>
    <contour>
      <point x="217" y="0" type="line" identifier="09VlJ0BjUX"/>
      <point x="3251" y="0" type="line" identifier="EagWihqFM8"/>
      <point x="3251" y="927" type="line" identifier="KfNuQA7eZe"/>
      <point x="620" y="927" type="line" identifier="At364YZFEy"/>
      <point x="620" y="1294" type="line" identifier="BcuLfvaQKC"/>
      <point x="3251" y="1294" type="line" identifier="3ZUkG35meB"/>
      <point x="3251" y="1600" type="line" identifier="SaF9ojRFrW"/>
      <point x="216" y="1600" type="line" identifier="F4sQEYelA8"/>
      <point x="216" y="672" type="line" identifier="3sQ8t8BZ6b"/>
      <point x="2846" y="672" type="line" identifier="yiV6OCBLHg"/>
      <point x="2846" y="306" type="line" identifier="9kdl9SYsn8"/>
      <point x="217" y="306" type="line" identifier="yZDWuX8LLe"/>
    </contour>
  </outline>
</glyph>
<glyph name="nine.wide" format="2">
  <advance width="3357"/>
  <outline>
    <contour>
      <point x="266" y="0" type="line" identifier="oGvEEuxnYv"/>
      <point x="3308" y="0" type="line" identifier="xR3pEHbMJx"/>
      <point x="3308" y="1600" type="line" identifier="uiw6aBUf4P"/>
      <point x="265" y="1600" type="line" identifier="jtYkxiUX6G"/>
      <point x="265" y="653" type="line" identifier="2G5L37c87I"/>
      <point x="2903" y="653" type="line"/>
      <point x="2903" y="306" type="line"/>
      <point x="266" y="306" type="line"/>
    </contour>
    <contour>
      <point x="670" y="947" type="line"/>
      <point x="670" y="1294" type="line"/>
      <point x="2903" y="1294" type="line"/>
      <point x="2903" y="947" type="line"/>
    </contour>
  </outline>
</glyph>
<glyph name="one.narrow" format="2">
  <advance width="2197"/>
  <outline>
    <contour>
      <point x="1889" y="0" type="line" identifier="5nmxQXofSG"/>
      <point x="1889" y="1600" type="line" identifier="4rjIeWbSbx"/>
      <point x="217" y="1600" type="line"/>
      <point x="217" y="1281" type="line"/>
      <point x="1484" y="1281" type="line"/>
      <point x="1484" y="0" type="line"/>
    </contour>
  </outline>
</glyph>
<glyph name="six.wide" format="2">
  <advance width="3344"/>
  <outline>
    <contour>
      <point x="231" y="0" type="line" identifier="uiw6aBUf4P"/>
      <point x="3292" y="0" type="line" identifier="jtYkxiUX6G"/>
      <point x="3292" y="926" type="line" identifier="2G5L37c87I"/>
      <point x="635" y="926" type="line"/>
      <point x="635" y="1119" type="line"/>
      <point x="845" y="1294" type="line"/>
      <point x="3291" y="1294" type="line"/>
      <point x="3291" y="1600" type="line" identifier="oGvEEuxnYv"/>
      <point x="571" y="1600" type="line" identifier="xR3pEHbMJx"/>
      <point x="231" y="1214" type="line" identifier="KnMArb0tv8"/>
    </contour>
    <contour>
      <point x="2887" y="649" type="line"/>
      <point x="2887" y="306" type="line"/>
      <point x="635" y="306" type="line"/>
      <point x="635" y="649" type="line"/>
    </contour>
  </outline>
</glyph>
<glyph name="three.wide" format="2">
  <advance width="3643"/>
  <outline>
    <contour>
      <point x="225" y="0" type="line" identifier="O9abUc1nmN"/>
      <point x="3334" y="0" type="line" identifier="kMJYMTfXCq"/>
      <point x="3334" y="940" type="line" identifier="su2XmdS8e8"/>
      <point x="3057" y="940" type="line" identifier="JQaOzDQqlF"/>
      <point x="3057" y="1600" type="line" identifier="xg8x2Ki40p"/>
      <point x="242" y="1600" type="line" identifier="pE1XSRiy68"/>
      <point x="242" y="1294" type="line" identifier="7ogBYufWpl"/>
      <point x="2651" y="1294" type="line" identifier="RHLvSX2Jv6"/>
      <point x="2651" y="942" type="line" identifier="iic1IBkDqp"/>
      <point x="658" y="942" type="line" identifier="lRLJEhXMlO"/>
      <point x="658" y="648" type="line" identifier="8aKgEELrVU"/>
      <point x="2929" y="648" type="line" identifier="Dm8zjmbhNr"/>
      <point x="2929" y="306" type="line" identifier="xv9CFHiFgB"/>
      <point x="225" y="306" type="line" identifier="YajKQV3MHP"/>
    </contour>
  </outline>
</glyph>
<glyph name="two.wide" format="2">
  <advance width="3310"/>
  <outline>
    <contour>
      <point x="283" y="0" type="line"/>
      <point x="3198" y="0" type="line" identifier="pzdvPTirLJ"/>
      <point x="3198" y="306" type="line"/>
      <point x="688" y="306" type="line"/>
      <point x="688" y="650" type="line"/>
      <point x="3201" y="650" type="line" identifier="yyb1NCCI5w"/>
      <point x="3201" y="1600" type="line" identifier="5FogYRSgkk"/>
      <point x="287" y="1600" type="line" identifier="svlFvrau4c"/>
      <point x="287" y="1294" type="line"/>
      <point x="2795" y="1294" type="line"/>
      <point x="2795" y="943" type="line"/>
      <point x="283" y="943" type="line" identifier="teVKnpBcVb"/>
    </contour>
  </outline>
</glyph>
<glyph name="two.wideskinny" format="2">
  <advance width="3310"/>
  <outline>
    <contour>
      <point x="283" y="0" type="line"/>
      <point x="3198" y="0" type="line" identifier="pzdvPTirLJ"/>
      <point x="3198" y="306" type="line"/>
      <point x="688" y="306" type="line"/>
      <point x="688" y="669" type="line"/>
      <point x="3201" y="669" type="line" identifier="yyb1NCCI5w"/>
      <point x="3201" y="1600" type="line" identifier="5FogYRSgkk"/>
      <point x="287" y="1600" type="line" identifier="svlFvrau4c"/>
      <point x="287" y="1294" type="line"/>
      <point x="2795" y="1294" type="line"/>
      <point x="2795" y="923" type="line"/>
      <point x="283" y="923" type="line" identifier="teVKnpBcVb"/>
    </contour>
  </outline>
</glyph>
